<svg width="25" height="26" viewBox="0 0 25 26" fill="none" xmlns="http://www.w3.org/2000/svg">
<path d="M13.4416 13H11V10H13.4416C14.0176 10 14.3696 10.1886 14.5968 10.4271C14.8448 10.6871 15 11.0729 15 11.5C15 11.9271 14.8448 12.3129 14.5968 12.5729C14.3696 12.8114 14.016 13 13.4416 13Z" fill="#D9D9D9"/>
<path d="M0 13C0 5.82 5.59615 0 12.5 0C19.4038 0 25 5.82 25 13C25 20.18 19.4038 26 12.5 26C5.59615 26 0 20.18 0 13ZM10.5769 8C10.3219 8 10.0773 8.10536 9.89701 8.29289C9.71669 8.48043 9.61539 8.73478 9.61539 9V17C9.61539 17.2652 9.71669 17.5196 9.89701 17.7071C10.0773 17.8946 10.3219 18 10.5769 18C10.8319 18 11.0765 17.8946 11.2568 17.7071C11.4372 17.5196 11.5385 17.2652 11.5385 17V14.8H13.4949C14.5077 14.8 15.3295 14.376 15.8846 13.6987C16.4231 13.0413 16.6667 12.2013 16.6667 11.4C16.6667 10.5987 16.4231 9.75867 15.8846 9.10133C15.3295 8.424 14.5064 8 13.4949 8H10.5769Z" fill="#D9D9D9"/>
</svg>
