<svg width="24" height="24" viewBox="0 0 24 24" fill="none" xmlns="http://www.w3.org/2000/svg">
<path d="M7.03095 8.12492C7.92875 9.99485 9.15264 11.7474 10.7026 13.2974C12.2526 14.8474 14.0051 16.0712 15.8751 16.969C16.0359 17.0463 16.1163 17.0849 16.2181 17.1145C16.5797 17.22 17.0238 17.1442 17.3301 16.9249C17.4163 16.8632 17.49 16.7895 17.6375 16.642C18.0884 16.1911 18.3139 15.9656 18.5407 15.8182C19.3958 15.2622 20.4981 15.2622 21.3532 15.8182C21.5799 15.9656 21.8054 16.1911 22.2564 16.642L22.5078 16.8934C23.1933 17.5789 23.5361 17.9217 23.7223 18.2898C24.0926 19.022 24.0926 19.8866 23.7223 20.6187C23.5361 20.9868 23.1933 21.3296 22.5078 22.0151L22.3044 22.2184C21.6213 22.9016 21.2797 23.2432 20.8152 23.5041C20.2999 23.7936 19.4995 24.0017 18.9084 24C18.3757 23.9984 18.0117 23.8951 17.2836 23.6884C13.3707 22.5778 9.67839 20.4823 6.59803 17.402C3.51767 14.3216 1.42219 10.6293 0.311584 6.71641C0.104925 5.98831 0.00159532 5.62426 1.10659e-05 5.09158C-0.00174804 4.5005 0.2064 3.7001 0.49589 3.18476C0.756778 2.72034 1.09837 2.37875 1.78155 1.69556L1.98489 1.49222C2.67043 0.80669 3.01319 0.463925 3.38132 0.277728C4.11344 -0.0925761 4.97804 -0.0925761 5.71016 0.277728C6.07829 0.463924 6.42105 0.806689 7.10659 1.49222L7.35796 1.74359C7.80893 2.19457 8.03442 2.42005 8.18184 2.64679C8.7378 3.50189 8.7378 4.60425 8.18184 5.45934C8.03442 5.68608 7.80893 5.91157 7.35796 6.36254C7.2105 6.51 7.13677 6.58373 7.07506 6.66991C6.85576 6.97618 6.78003 7.42026 6.88545 7.7819C6.91512 7.88366 6.95373 7.96408 7.03095 8.12492Z" fill="#D9D9D9"/>
</svg>
